<svg width="44" height="44" viewBox="0 0 44 44" fill="none" xmlns="http://www.w3.org/2000/svg">
<g clip-path="url(#clip0_60_541)">
<path d="M37.9683 35.365L31.735 29.15C33.7461 26.5878 34.8374 23.4239 34.8333 20.1667C34.8333 17.2659 33.9732 14.4302 32.3616 12.0183C30.75 9.60638 28.4593 7.72652 25.7794 6.61643C23.0994 5.50635 20.1504 5.2159 17.3054 5.78182C14.4603 6.34773 11.8469 7.7446 9.79577 9.79577C7.7446 11.8469 6.34774 14.4603 5.78182 17.3053C5.21591 20.1504 5.50635 23.0994 6.61644 25.7794C7.72653 28.4593 9.60639 30.75 12.0183 32.3616C14.4302 33.9731 17.2659 34.8333 20.1667 34.8333C23.4239 34.8374 26.5878 33.7461 29.15 31.735L35.365 37.9683C35.5354 38.1402 35.7382 38.2766 35.9616 38.3696C36.185 38.4627 36.4247 38.5106 36.6667 38.5106C36.9087 38.5106 37.1483 38.4627 37.3717 38.3696C37.5951 38.2766 37.7979 38.1402 37.9683 37.9683C38.1402 37.7979 38.2766 37.5951 38.3696 37.3717C38.4627 37.1483 38.5106 36.9087 38.5106 36.6667C38.5106 36.4246 38.4627 36.185 38.3696 35.9616C38.2766 35.7382 38.1402 35.5354 37.9683 35.365ZM9.16667 20.1667C9.16667 17.9911 9.81181 15.8643 11.0205 14.0554C12.2292 12.2465 13.9472 10.8366 15.9572 10.004C17.9671 9.17143 20.1789 8.95359 22.3127 9.37803C24.4465 9.80247 26.4065 10.8501 27.9448 12.3885C29.4832 13.9269 30.5309 15.8869 30.9553 18.0207C31.3798 20.1545 31.1619 22.3662 30.3294 24.3762C29.4968 26.3862 28.0869 28.1041 26.2779 29.3128C24.469 30.5215 22.3423 31.1667 20.1667 31.1667C17.2493 31.1667 14.4514 30.0077 12.3885 27.9448C10.3256 25.8819 9.16667 23.0841 9.16667 20.1667Z" fill="black"/>
</g>
<defs>
<clipPath id="clip0_60_541">
<rect width="44" height="44" fill="white"/>
</clipPath>
</defs>
</svg>
