<svg width="40" height="40" viewBox="0 0 40 40" fill="none" xmlns="http://www.w3.org/2000/svg">
<g clip-path="url(#clip0_145_2376)">
<path d="M19.9997 18.3333C21.3182 18.3333 22.6071 17.9423 23.7035 17.2098C24.7998 16.4773 25.6543 15.4361 26.1589 14.2179C26.6635 12.9997 26.7955 11.6593 26.5382 10.3661C26.281 9.07286 25.6461 7.88497 24.7137 6.95262C23.7814 6.02027 22.5935 5.38534 21.3003 5.1281C20.0071 4.87087 18.6666 5.00289 17.4485 5.50747C16.2303 6.01206 15.1891 6.86654 14.4565 7.96287C13.724 9.0592 13.333 10.3481 13.333 11.6667C13.333 13.4348 14.0354 15.1305 15.2856 16.3807C16.5359 17.631 18.2316 18.3333 19.9997 18.3333ZM19.9997 8.33334C20.6589 8.33334 21.3034 8.52883 21.8516 8.8951C22.3997 9.26138 22.827 9.78197 23.0793 10.3911C23.3316 11.0001 23.3976 11.6704 23.269 12.317C23.1403 12.9636 22.8229 13.5575 22.3567 14.0237C21.8905 14.4899 21.2966 14.8073 20.65 14.936C20.0034 15.0646 19.3332 14.9986 18.7241 14.7463C18.115 14.494 17.5944 14.0667 17.2281 13.5186C16.8618 12.9704 16.6663 12.3259 16.6663 11.6667C16.6663 10.7826 17.0175 9.93477 17.6427 9.30965C18.2678 8.68453 19.1156 8.33334 19.9997 8.33334Z" fill="black"/>
<path d="M19.9997 21.6667C16.9055 21.6667 13.938 22.8958 11.7501 25.0837C9.56217 27.2717 8.33301 30.2391 8.33301 33.3333C8.33301 33.7754 8.5086 34.1993 8.82116 34.5118C9.13372 34.8244 9.55765 35 9.99967 35C10.4417 35 10.8656 34.8244 11.1782 34.5118C11.4907 34.1993 11.6663 33.7754 11.6663 33.3333C11.6663 31.1232 12.5443 29.0036 14.1071 27.4408C15.6699 25.878 17.7895 25 19.9997 25C22.2098 25 24.3294 25.878 25.8922 27.4408C27.455 29.0036 28.333 31.1232 28.333 33.3333C28.333 33.7754 28.5086 34.1993 28.8212 34.5118C29.1337 34.8244 29.5576 35 29.9997 35C30.4417 35 30.8656 34.8244 31.1782 34.5118C31.4907 34.1993 31.6663 33.7754 31.6663 33.3333C31.6663 30.2391 30.4372 27.2717 28.2493 25.0837C26.0613 22.8958 23.0939 21.6667 19.9997 21.6667Z" fill="black"/>
</g>
<defs>
<clipPath id="clip0_145_2376">
<rect width="40" height="40" fill="white"/>
</clipPath>
</defs>
</svg>
