<svg width="80" height="80" viewBox="0 0 80 80" fill="none" xmlns="http://www.w3.org/2000/svg">
<g clip-path="url(#clip0_12_5867)">
<path d="M40 3.33342C30.3782 3.23565 21.1113 6.96211 14.2358 13.6938C7.36033 20.4256 3.43891 29.6117 3.33337 39.2334C3.37045 46.8373 5.81652 54.2338 10.3202 60.3606C14.824 66.4873 21.1536 71.0291 28.4 73.3334C30.2334 73.6667 30.9 72.5667 30.9 71.6001V65.5001C20.7 67.6667 18.5334 60.7001 18.5334 60.7001C17.8544 58.5131 16.4108 56.6436 14.4667 55.4334C11.1334 53.2334 14.7334 53.2668 14.7334 53.2668C15.8855 53.4208 16.9879 53.8337 17.9577 54.4745C18.9276 55.1153 19.7398 55.9673 20.3334 56.9668C21.3678 58.7605 23.0652 60.0764 25.0601 60.6312C27.055 61.1861 29.188 60.9355 31 59.9334C31.1864 58.108 32.013 56.4076 33.3334 55.1334C25.2 54.2334 16.6667 51.1668 16.6667 37.4001C16.594 33.809 17.9208 30.3305 20.3667 27.7001C19.2528 24.617 19.3843 21.2211 20.7334 18.2334C20.7334 18.2334 23.8334 17.2668 30.7334 21.9001C36.7397 20.2995 43.0604 20.2995 49.0667 21.9001C56.0667 17.2668 59.0667 18.2334 59.0667 18.2334C60.4157 21.2211 60.5473 24.617 59.4334 27.7001C61.936 30.2822 63.3349 33.7375 63.3334 37.3334C63.3334 51.1334 54.7334 54.1668 46.6667 55.0668C47.55 55.9243 48.2323 56.9669 48.6645 58.1196C49.0968 59.2724 49.2683 60.5065 49.1667 61.7334V71.5667C49.1667 72.7334 49.8334 73.6667 51.6667 73.3001C58.8926 70.9814 65.2009 66.4386 69.6907 60.3205C74.1805 54.2025 76.6221 46.822 76.6667 39.2334C76.5612 29.6117 72.6397 20.4256 65.7643 13.6938C58.8888 6.96211 49.6218 3.23565 40 3.33342Z" fill="black"/>
</g>
<defs>
<clipPath id="clip0_12_5867">
<rect width="80" height="80" fill="white"/>
</clipPath>
</defs>
</svg>
