<svg width="81" height="80" viewBox="0 0 81 80" fill="none" xmlns="http://www.w3.org/2000/svg">
<g clip-path="url(#clip0_145_2768)">
<path d="M40.4999 3.33342C30.8781 3.23565 21.6112 6.96211 14.7357 13.6938C7.86021 20.4256 3.93879 29.6117 3.83325 39.2334C3.87033 46.8373 6.3164 54.2338 10.8201 60.3606C15.3239 66.4873 21.6535 71.0291 28.8999 73.3334C30.7333 73.6667 31.3999 72.5667 31.3999 71.6001V65.5001C21.1999 67.6667 19.0332 60.7001 19.0332 60.7001C18.3542 58.5131 16.9107 56.6436 14.9666 55.4334C11.6333 53.2334 15.2333 53.2668 15.2333 53.2668C16.3854 53.4208 17.4878 53.8337 18.4576 54.4745C19.4275 55.1153 20.2396 55.9673 20.8333 56.9668C21.8677 58.7605 23.565 60.0764 25.56 60.6312C27.5549 61.1861 29.6879 60.9355 31.4999 59.9334C31.6863 58.108 32.5129 56.4076 33.8332 55.1334C25.6999 54.2334 17.1666 51.1668 17.1666 37.4001C17.0939 33.809 18.4207 30.3305 20.8666 27.7001C19.7527 24.617 19.8842 21.2211 21.2332 18.2334C21.2332 18.2334 24.3333 17.2668 31.2332 21.9001C37.2396 20.2995 43.5603 20.2995 49.5666 21.9001C56.5666 17.2668 59.5666 18.2334 59.5666 18.2334C60.9156 21.2211 61.0472 24.617 59.9332 27.7001C62.4359 30.2822 63.8347 33.7375 63.8332 37.3334C63.8332 51.1334 55.2332 54.1668 47.1666 55.0668C48.0499 55.9243 48.7322 56.9669 49.1644 58.1196C49.5967 59.2724 49.7682 60.5065 49.6666 61.7334V71.5667C49.6666 72.7334 50.3332 73.6667 52.1666 73.3001C59.3924 70.9814 65.7008 66.4386 70.1906 60.3205C74.6803 54.2025 77.1219 46.822 77.1666 39.2334C77.061 29.6117 73.1396 20.4256 66.2641 13.6938C59.3887 6.96211 50.1217 3.23565 40.4999 3.33342Z" fill="black"/>
</g>
<defs>
<clipPath id="clip0_145_2768">
<rect width="80" height="80" fill="white" transform="translate(0.5)"/>
</clipPath>
</defs>
</svg>
